<svg id="Layer_1" data-name="Layer 1" xmlns="http://www.w3.org/2000/svg" viewBox="0 0 1080 1080"><defs><style>.cls-1{fill:#211f89;}.cls-2{fill:none;stroke:#fff;stroke-miterlimit:10;stroke-width:2px;}.cls-3{fill:#fff;}.cls-4{fill:#c9c9c9;}.cls-5{font-size:74.03px;}.cls-5,.cls-6{font-family:AgencyFB-Bold, Agency FB;font-weight:700;}.cls-6{font-size:149px;}.cls-7{font-size:75px;font-family:AgencyFB-Reg, Agency FB;font-weight:400;}</style></defs><title>Artboard 3</title><path d="M765.28,424.22S757,435.33,757,442.86s2.37,12.29,2,19.83,1.58,5.15-6,17.05-18.24,23-21.81,24.19-5.95,3.17,0,9.51A46.86,46.86,0,0,0,743.87,523s-6.35,9.52-3.17,14.27,2,.4.39,6.35-2.77,4.36,0,9.12,5.16,5.55,5.16,12.29-2.38,10.31,0,13.88,5.55,4,13.88,4,15.07-3.18,17.45,0,5.15,3.17,4.75,7.13-2,13.09-4.36,17.06,29.35,5.55,40.45,2,23-.4,40.05-23.4,27.76-23.79,33.7-62.25,17.05-30.14,8.33-63.05,2.38-35.29-23.39-47.19-39.66-17.45-65-12.29-44,8.72-48.37,13.88S765.28,424.22,765.28,424.22Z"/><path class="cls-1" d="M734,406c-2.23-3-1.45-6.75-2-6.74s-1.43,4.32-.79,8.72c.38,2.64.66,5.48,2.78,7.14,1.61,1.27,2.91.81,3.17,1.59.58,1.74-5.71,4.59-13.48,10.7a58.47,58.47,0,0,0-7.93,7.14c-6.31,7-9.27,14.74-8.73,15.07s2.39-4.07,7.14-8.33c7.52-6.74,18.13-9.87,19.83-7.53,1.59,2.19-6.41,6.74-7.54,16.65-1,8.92,4.1,17.14,4.36,17.05a30.44,30.44,0,0,1-1.19-5.55c-.7-9.09,5.48-17.51,6.75-17.05.62.23-.44,2.44,0,7.14a22.06,22.06,0,0,0,3.17,10.31c3.51,5.51,9,7.72,9.12,7.53s-3.24-1.65-4.76-5.15c-2.19-5.06.6-11.57,2-11.5s.34,5.6,4.36,11.5c2.95,4.32,7.13,6.74,7.54,6.34s-2.64-2.57-3.57-6.34c-1.48-6,2.77-13.86,6.34-13.88,3.37,0,3,7,9.92,12.69,8,6.55,18.2,6.1,18.24,5.95a25.84,25.84,0,0,1-9.92-4.36,14.89,14.89,0,0,1-5.55-6.75c-1.27-3.5-1.32-8.9.8-9.91,5-2.36,24.31,18.41,20.22,31.33-.85,2.67-2.78,5.27-2.38,5.55s5.34-3.63,6.74-9.12c1.77-6.9-2.63-13-2.38-13.09s7.81,9.57,5.55,19.83c-1.24,5.64-4.9,9.07-4.36,9.52,1.12.93,16.05-14.48,16.26-14.28s-5.47,3.94-5.55,9.12c-.1,6.07,7.44,11.13,7.93,10.71s-3.78-3.37-4-7.54c-.41-9.05,17.95-21.37,27-17.06,9.53,4.56,7,26.91,5.88,34.5-.08.53-.18,1.26-.34,2.19,0,.07,0,.16-.05.27-5.71,32.64-19.78,51.48-19.78,51.48-2.42,1.76-50.56,36-88,27-6-1.43-17.08-4.1-27-13.08-11-10-15.18-22.94-15.86-22.6s2.53,8.33,7.13,17.44a129.73,129.73,0,0,0,13.49,21.81,123.45,123.45,0,0,0,30.13,27.36c29.23,18.75,59.21,19.44,66.82,19.43,10.56,0,52.39-1.4,86.64-34.89,4-3.86,37-37.24,36.88-88.63a126,126,0,0,0-54.72-102.5A123.84,123.84,0,0,0,820,392.5c-22.32-1.5-51.55,2.79-62.25,11.9A21.82,21.82,0,0,1,747,409.55C746.59,409.62,737.65,410.89,734,406Z"/><line class="cls-2" x1="804.54" y1="400.03" x2="804.54" y2="438.5"/><line class="cls-2" x1="885.83" y1="438.5" x2="804.54" y2="438.5"/><line class="cls-2" x1="844.99" y1="416.29" x2="844.99" y2="438.5"/><line class="cls-2" x1="832.69" y1="416.29" x2="845.78" y2="416.29"/><line class="cls-2" x1="869.57" y1="429.77" x2="844.99" y2="429.77"/><line class="cls-2" x1="885.83" y1="428.98" x2="885.83" y2="440.08"/><line class="cls-2" x1="804.54" y1="462.69" x2="804.54" y2="434.93"/><line class="cls-2" x1="885.83" y1="438.89" x2="883.05" y2="609.8"/><line class="cls-2" x1="835.87" y1="574.91" x2="883.85" y2="575.7"/><line class="cls-2" x1="931.43" y1="528.11" x2="884.24" y2="526.92"/><line class="cls-2" x1="915.57" y1="566.58" x2="916.76" y2="527.72"/><line class="cls-2" x1="927.07" y1="498.37" x2="885.04" y2="498.37"/><line class="cls-2" x1="919.14" y1="472.6" x2="918.74" y2="498.37"/><line class="cls-2" x1="926.28" y1="484.1" x2="926.28" y2="499.17"/><line class="cls-2" x1="852.12" y1="559.44" x2="851.33" y2="626.46"/><line class="cls-2" x1="791.45" y1="626.06" x2="851.33" y2="625.66"/><line class="cls-2" x1="792.25" y1="595.53" x2="792.25" y2="626.85"/><line class="cls-2" x1="743.47" y1="610.2" x2="791.45" y2="610.99"/><line class="cls-2" x1="743.87" y1="597.9" x2="744.26" y2="610.2"/><line class="cls-2" x1="770.04" y1="610.2" x2="770.04" y2="626.46"/><line class="cls-2" x1="819.61" y1="595.53" x2="791.45" y2="595.53"/><line class="cls-2" x1="818.81" y1="578.47" x2="818.81" y2="595.53"/><line class="cls-2" x1="868.51" y1="616.02" x2="883.32" y2="609.14"/><line class="cls-2" x1="853.51" y1="511.66" x2="884.44" y2="511.66"/><line class="cls-2" x1="854.3" y1="485.88" x2="854.3" y2="511.66"/><line class="cls-2" x1="816.24" y1="438.7" x2="816.24" y2="471.21"/><line class="cls-2" x1="816.24" y1="457.73" x2="843.2" y2="457.73"/><line class="cls-2" x1="755.57" y1="610" x2="755.96" y2="595.72"/><line class="cls-2" x1="816.24" y1="632.01" x2="816.44" y2="625.27"/><line class="cls-2" x1="831.7" y1="600.48" x2="831.7" y2="625.46"/><line class="cls-2" x1="851.93" y1="592.15" x2="868.98" y2="592.15"/><line class="cls-2" x1="898.72" y1="527.92" x2="897.53" y2="587.79"/><line class="cls-2" x1="907.84" y1="506.5" x2="907.84" y2="527.52"/><line class="cls-2" x1="733.96" y1="599.49" x2="744.27" y2="603.46"/><line class="cls-2" x1="779.16" y1="591.96" x2="779.56" y2="610.2"/><line class="cls-2" x1="804.54" y1="595.53" x2="804.54" y2="617.73"/><line class="cls-2" x1="854.11" y1="496" x2="872.35" y2="496.39"/><line class="cls-2" x1="866" y1="438.5" x2="866" y2="476.56"/><line class="cls-2" x1="804.54" y1="438.5" x2="745.46" y2="438.5"/><line class="cls-2" x1="746.25" y1="447.22" x2="746.25" y2="437.7"/><line class="cls-2" x1="731.97" y1="427.39" x2="804.54" y2="427.39"/><line class="cls-2" x1="755.77" y1="413.52" x2="755.77" y2="427.39"/><line class="cls-2" x1="745.06" y1="413.52" x2="756.56" y2="413.52"/><line class="cls-2" x1="773.61" y1="400.03" x2="773.61" y2="427.39"/><line class="cls-2" x1="786.7" y1="413.52" x2="804.54" y2="413.52"/><line class="cls-2" x1="823.97" y1="400.03" x2="824.37" y2="438.5"/><line class="cls-2" x1="885.83" y1="451.98" x2="907.64" y2="452.38"/><circle class="cls-3" cx="746.84" cy="413.71" r="2.58"/><circle class="cls-3" cx="732.57" cy="427.2" r="2.58"/><circle class="cls-3" cx="746.05" cy="446.63" r="2.58"/><circle class="cls-3" cx="773.41" cy="401.42" r="2.58"/><circle class="cls-3" cx="786.89" cy="413.71" r="2.58"/><circle class="cls-3" cx="804.74" cy="399.84" r="2.58"/><circle class="cls-3" cx="804.74" cy="462.88" r="2.58"/><circle class="cls-3" cx="832.89" cy="416.09" r="2.58"/><circle class="cls-3" cx="824.56" cy="399.84" r="2.58"/><circle class="cls-3" cx="907.04" cy="452.18" r="2.58"/><circle class="cls-3" cx="816.24" cy="471.21" r="2.58"/><circle class="cls-3" cx="869.77" cy="429.97" r="2.58"/><circle class="cls-3" cx="886.03" cy="429.58" r="2.58"/><circle class="cls-3" cx="843.2" cy="457.73" r="2.58"/><circle class="cls-3" cx="866.2" cy="476.76" r="2.58"/><circle class="cls-3" cx="918.94" cy="472.8" r="2.58"/><circle class="cls-3" cx="854.3" cy="485.88" r="2.58"/><circle class="cls-3" cx="872.15" cy="496.19" r="2.58"/><circle class="cls-3" cx="926.47" cy="484.69" r="2.58"/><circle class="cls-3" cx="907.84" cy="506.5" r="2.58"/><circle class="cls-3" cx="930.84" cy="527.92" r="2.58"/><circle class="cls-3" cx="915.37" cy="566.78" r="2.58"/><circle class="cls-3" cx="897.53" cy="587.79" r="2.58"/><circle class="cls-3" cx="852.32" cy="559.24" r="2.58"/><circle class="cls-3" cx="835.27" cy="574.71" r="2.58"/><circle class="cls-3" cx="868.98" cy="592.15" r="2.58"/><circle class="cls-3" cx="831.7" cy="600.48" r="2.58"/><circle class="cls-3" cx="816.24" cy="632.21" r="2.58"/><circle class="cls-3" cx="804.34" cy="617.93" r="2.58"/><circle class="cls-3" cx="818.62" cy="578.28" r="2.58"/><circle class="cls-3" cx="733.76" cy="599.29" r="2.58"/><circle class="cls-3" cx="743.67" cy="597.71" r="2.58"/><circle class="cls-3" cx="755.96" cy="595.33" r="2.58"/><circle class="cls-3" cx="769.84" cy="626.26" r="2.58"/><circle class="cls-3" cx="779.36" cy="592.15" r="2.58"/><circle class="cls-3" cx="868.18" cy="615.95" r="2.58"/><circle class="cls-4" cx="858.07" cy="506.7" r="58.69"/><rect class="cls-4" x="841.62" y="381" width="34.9" height="124.51" rx="17.45"/><rect x="843.6" y="381" width="30.93" height="84.07" rx="15.46"/><circle cx="858.07" cy="507.1" r="56.7"/><path class="cls-1" d="M903.51,498.62l-36.43-.54.54-36.44,20.17.3a53.64,53.64,0,0,0-57.78-.86l20.06.3-.54,36.44-36.44-.55.3-20a53.65,53.65,0,0,0-.86,57.31l.3-19.78,36.44.54-.55,36.44L829,551.51a53.66,53.66,0,0,0,57.16.85l-19.86-.3.54-36.44,36.44.55-.3,19.94a53.61,53.61,0,0,0,.86-57.63Z"/><path class="cls-3" d="M814,485.89l.13-8.74a50.55,50.55,0,0,0-6.89,15.1Z"/><path class="cls-3" d="M846.7,454.46a53.62,53.62,0,0,0-16,6.37l9.08.14Z"/><path class="cls-3" d="M813,535l.13-8.69-6.54-6.54A50.24,50.24,0,0,0,813,535Z"/><path class="cls-3" d="M872.4,558.45A53.34,53.34,0,0,0,889.25,552l-9.85-.14Z"/><polygon class="cls-3" points="869.9 507.42 878.61 499.21 867.27 499.05 867.46 486.31 857.85 495.36 850.14 487.64 849.97 498.8 836.99 498.61 845.44 507.06 836.58 515.41 849.71 515.6 849.54 526.61 857.49 519.12 866.82 528.45 867.01 515.85 878.5 516.02 869.9 507.42"/><path class="cls-3" d="M878.87,462l10,.15A53.19,53.19,0,0,0,871.86,455Z"/><path class="cls-3" d="M828.7,551.87a53.26,53.26,0,0,0,15.41,6.63l-6.5-6.5Z"/><path class="cls-3" d="M902.86,536.25A50.36,50.36,0,0,0,909.38,521L903,527Z"/><path class="cls-3" d="M904,477.48l-.14,9.28,6.21,6.22A50.11,50.11,0,0,0,904,477.48Z"/><rect class="cls-3" x="818.29" y="493.06" width="26.03" height="26.03" transform="translate(-114.37 736.04) rotate(-45)"/><rect class="cls-3" x="845.55" y="465.8" width="26.03" height="26.03" transform="translate(-87.1 747.34) rotate(-45)"/><rect class="cls-3" x="872.82" y="493.06" width="26.03" height="26.03" transform="translate(-98.4 774.61) rotate(-45)"/><rect class="cls-3" x="845.55" y="520.33" width="26.03" height="26.03" transform="translate(-125.66 763.31) rotate(-45)"/><rect class="cls-3" x="826.27" y="475.37" width="26.03" height="26.03"/><rect class="cls-3" x="864.83" y="475.37" width="26.03" height="26.03"/><rect class="cls-3" x="864.83" y="513.93" width="26.03" height="26.03"/><rect class="cls-3" x="826.27" y="513.93" width="26.03" height="26.03"/><text class="cls-5" transform="translate(824.62 536.92)">PS</text><text class="cls-6" transform="translate(164.22 528.83)">Patti Shin<tspan class="cls-7"><tspan x="51.37" y="80">Software Engineer</tspan></tspan></text></svg>