<svg id="Layer_1" data-name="Layer 1" xmlns="http://www.w3.org/2000/svg" viewBox="0 0 1080 1080"><defs><style>.cls-1{fill:#211f89;}.cls-2{fill:none;stroke:#fff;stroke-miterlimit:10;stroke-width:4px;}.cls-3{fill:#fff;}.cls-4{fill:#c9c9c9;}.cls-5{font-size:186.68px;font-family:AgencyFB-Bold, Agency FB;font-weight:700;}</style></defs><title>Artboard 1</title><path d="M416,319s-21,28-21,47,6,31,5,50,4,13-15,43-46,58-55,61-15,8,0,24a118.32,118.32,0,0,0,32,24s-16,24-8,36,5,1,1,16-7,11,0,23,13,14,13,31-6,26,0,35,14,10,35,10,38-8,44,0,13,8,12,18-5,33-11,43,74,14,102,5,58-1,101-59,70-60,85-157,43-76,21-159,6-89-59-119-100-44-164-31-111,22-122,35S416,319,416,319Z"/><path class="cls-1" d="M337,273c-5.63-7.49-3.65-17-5-17-1.6,0-3.62,10.9-2,22,1,6.65,1.67,13.81,7,18,4.07,3.19,7.34,2,8,4,1.47,4.4-14.4,11.57-34,27-6.39,5-13,10.26-20,18-15.91,17.67-23.36,37.17-22,38,1,.63,6-10.25,18-21,19-17,45.71-24.9,50-19,4,5.53-16.15,17-19,42-2.56,22.5,10.34,43.21,11,43,.37-.12-2.35-5.63-3-14-1.78-22.92,13.82-44.16,17-43,1.57.57-1.09,6.15,0,18,.54,5.82,1.58,15.92,8,26,8.85,13.89,22.65,19.47,23,19s-8.17-4.17-12-13c-5.53-12.75,1.51-29.17,5-29,3.2.15.85,14.13,11,29,7.43,10.88,18,17,19,16s-6.66-6.48-9-16c-3.72-15.11,7-34.94,16-35,8.49-.06,7.66,17.76,25,32,20.13,16.53,45.91,15.39,46,15s-12.46-1.52-25-11c-4.42-3.34-10.85-8.33-14-17-3.21-8.85-3.33-22.46,2-25,12.54-6,61.31,46.44,51,79-2.14,6.74-7,13.3-6,14,1.39,1,13.46-9.16,17-23,4.45-17.4-6.63-32.74-6-33,.8-.34,19.69,24.11,14,50-3.13,14.23-12.36,22.87-11,24,2.83,2.35,40.48-36.51,41-36,.29.28-13.78,9.94-14,23-.25,15.3,18.77,28.06,20,27,.93-.8-9.52-8.49-10-19-1-22.83,45.27-53.91,68-43,24,11.5,17.65,67.85,14.83,87-.19,1.33-.45,3.18-.86,5.53l-.12.67C601.47,618.49,566,666,566,666c-6.1,4.43-127.5,90.71-222,68-15.05-3.62-43.08-10.35-68-33-27.63-25.11-38.29-57.84-40-57-1.37.67,6.39,21,18,44,6.82,13.51,17.13,33.21,34,55a311.76,311.76,0,0,0,76,69c73.7,47.27,149.3,49,168.5,49,26.63,0,132.12-3.54,218.5-88,10-9.73,93.39-93.92,93-223.5-.06-18.93-2-76-34-139.5-35.43-70.33-87.12-107.62-104-119a312.26,312.26,0,0,0-152-52c-56.31-3.77-130,7-157,30-2.19,1.87-12.18,10.71-27,13C368.85,282.18,346.3,285.38,337,273Z"/><line class="cls-2" x1="515" y1="258" x2="515" y2="355"/><line class="cls-2" x1="720" y1="355" x2="515" y2="355"/><line class="cls-2" x1="617" y1="299" x2="617" y2="355"/><line class="cls-2" x1="586" y1="299" x2="619" y2="299"/><line class="cls-2" x1="679" y1="333" x2="617" y2="333"/><line class="cls-2" x1="720" y1="331" x2="720" y2="359"/><line class="cls-2" x1="515" y1="416" x2="515" y2="346"/><line class="cls-2" x1="720" y1="356" x2="713" y2="787"/><line class="cls-2" x1="594" y1="699" x2="715" y2="701"/><line class="cls-2" x1="835" y1="581" x2="716" y2="578"/><line class="cls-2" x1="795" y1="678" x2="798" y2="580"/><line class="cls-2" x1="824" y1="506" x2="718" y2="506"/><line class="cls-2" x1="804" y1="441" x2="803" y2="506"/><line class="cls-2" x1="822" y1="470" x2="822" y2="508"/><line class="cls-2" x1="635" y1="660" x2="633" y2="829"/><line class="cls-2" x1="482" y1="828" x2="633" y2="827"/><line class="cls-2" x1="484" y1="751" x2="484" y2="830"/><line class="cls-2" x1="361" y1="788" x2="482" y2="790"/><line class="cls-2" x1="362" y1="757" x2="363" y2="788"/><line class="cls-2" x1="428" y1="788" x2="428" y2="829"/><line class="cls-2" x1="553" y1="751" x2="482" y2="751"/><line class="cls-2" x1="551" y1="708" x2="551" y2="751"/><line class="cls-2" x1="676.33" y1="802.68" x2="713.67" y2="785.32"/><line class="cls-2" x1="638.5" y1="539.5" x2="716.5" y2="539.5"/><line class="cls-2" x1="640.5" y1="474.5" x2="640.5" y2="539.5"/><line class="cls-2" x1="544.5" y1="355.5" x2="544.5" y2="437.5"/><line class="cls-2" x1="544.5" y1="403.5" x2="612.5" y2="403.5"/><line class="cls-2" x1="391.5" y1="787.5" x2="392.5" y2="751.5"/><line class="cls-2" x1="544.5" y1="843" x2="545" y2="826"/><line class="cls-2" x1="583.5" y1="763.5" x2="583.5" y2="826.5"/><line class="cls-2" x1="634.5" y1="742.5" x2="677.5" y2="742.5"/><line class="cls-2" x1="752.5" y1="580.5" x2="749.5" y2="731.5"/><line class="cls-2" x1="775.5" y1="526.5" x2="775.5" y2="579.5"/><line class="cls-2" x1="337" y1="761" x2="363" y2="771"/><line class="cls-2" x1="451" y1="742" x2="452" y2="788"/><line class="cls-2" x1="515" y1="751" x2="515" y2="807"/><line class="cls-2" x1="640" y1="500" x2="686" y2="501"/><line class="cls-2" x1="670" y1="355" x2="670" y2="451"/><line class="cls-2" x1="515" y1="355" x2="366" y2="355"/><line class="cls-2" x1="368" y1="377" x2="368" y2="353"/><line class="cls-2" x1="332" y1="327" x2="515" y2="327"/><line class="cls-2" x1="392" y1="292" x2="392" y2="327"/><line class="cls-2" x1="365" y1="292" x2="394" y2="292"/><line class="cls-2" x1="437" y1="258" x2="437" y2="327"/><line class="cls-2" x1="470" y1="292" x2="515" y2="292"/><line class="cls-2" x1="564" y1="258" x2="565" y2="355"/><line class="cls-2" x1="720" y1="389" x2="775" y2="390"/><circle class="cls-3" cx="369.5" cy="292.5" r="6.5"/><circle class="cls-3" cx="333.5" cy="326.5" r="6.5"/><circle class="cls-3" cx="367.5" cy="375.5" r="6.5"/><circle class="cls-3" cx="436.5" cy="261.5" r="6.5"/><circle class="cls-3" cx="470.5" cy="292.5" r="6.5"/><circle class="cls-3" cx="515.5" cy="257.5" r="6.5"/><circle class="cls-3" cx="515.5" cy="416.5" r="6.5"/><circle class="cls-3" cx="586.5" cy="298.5" r="6.5"/><circle class="cls-3" cx="565.5" cy="257.5" r="6.5"/><circle class="cls-3" cx="773.5" cy="389.5" r="6.5"/><circle class="cls-3" cx="544.5" cy="437.5" r="6.5"/><circle class="cls-3" cx="679.5" cy="333.5" r="6.5"/><circle class="cls-3" cx="720.5" cy="332.5" r="6.5"/><circle class="cls-3" cx="612.5" cy="403.5" r="6.5"/><circle class="cls-3" cx="670.5" cy="451.5" r="6.5"/><circle class="cls-3" cx="803.5" cy="441.5" r="6.5"/><circle class="cls-3" cx="640.5" cy="474.5" r="6.5"/><circle class="cls-3" cx="685.5" cy="500.5" r="6.5"/><circle class="cls-3" cx="822.5" cy="471.5" r="6.5"/><circle class="cls-3" cx="775.5" cy="526.5" r="6.5"/><circle class="cls-3" cx="833.5" cy="580.5" r="6.5"/><circle class="cls-3" cx="794.5" cy="678.5" r="6.5"/><circle class="cls-3" cx="749.5" cy="731.5" r="6.5"/><circle class="cls-3" cx="635.5" cy="659.5" r="6.5"/><circle class="cls-3" cx="592.5" cy="698.5" r="6.5"/><circle class="cls-3" cx="677.5" cy="742.5" r="6.5"/><circle class="cls-3" cx="583.5" cy="763.5" r="6.5"/><circle class="cls-3" cx="544.5" cy="843.5" r="6.5"/><circle class="cls-3" cx="514.5" cy="807.5" r="6.5"/><circle class="cls-3" cx="550.5" cy="707.5" r="6.5"/><circle class="cls-3" cx="336.5" cy="760.5" r="6.5"/><circle class="cls-3" cx="361.5" cy="756.5" r="6.5"/><circle class="cls-3" cx="392.5" cy="750.5" r="6.5"/><circle class="cls-3" cx="427.5" cy="828.5" r="6.5"/><circle class="cls-3" cx="451.5" cy="742.5" r="6.5"/><circle class="cls-3" cx="675.5" cy="802.5" r="6.5"/><circle class="cls-4" cx="650" cy="527" r="148"/><rect class="cls-4" x="608.5" y="210" width="88" height="314" rx="26.91"/><rect x="613.5" y="210" width="78" height="212" rx="18.08"/><circle cx="650" cy="528" r="143"/><path class="cls-1" d="M764.6,506.62l-91.89-1.37,1.37-91.89,50.86.76A135.24,135.24,0,0,0,579.23,412l50.6.75-1.38,91.89-91.89-1.37.76-50.38a135.27,135.27,0,0,0-2.16,144.51l.74-49.88,91.89,1.37-1.37,91.89L576.61,640a135.28,135.28,0,0,0,144.15,2.15l-50.09-.75,1.38-91.89,91.89,1.37-.75,50.3a135.27,135.27,0,0,0,2.16-145.35Z"/><path class="cls-3" d="M537.36,477.55l.34-22a126.59,126.59,0,0,0-17.38,38.08Z"/><path class="cls-3" d="M621.33,396.29A134.32,134.32,0,0,0,581,412.38l22.89.33Z"/><path class="cls-3" d="M535.57,595.88l.34-21.9-16.5-16.51A126.46,126.46,0,0,0,535.57,595.88Z"/><path class="cls-3" d="M676.05,659a134.69,134.69,0,0,0,42.5-16.27l-24.86-.36Z"/><polygon class="cls-3" points="679.84 528.81 701.79 508.12 673.19 507.71 673.68 475.57 649.45 498.41 629.99 478.94 629.56 507.07 596.83 506.6 618.14 527.92 595.81 548.96 628.91 549.44 628.48 577.22 648.53 558.32 672.05 581.85 672.54 550.07 701.51 550.49 679.84 528.81"/><path class="cls-3" d="M697.41,414.06l25.35.37a134.37,134.37,0,0,0-43-18.07Z"/><path class="cls-3" d="M578.44,640.71a134.51,134.51,0,0,0,38.88,16.72L600.93,641Z"/><path class="cls-3" d="M764.45,598.48a126.53,126.53,0,0,0,16.45-38.41l-16.09,15.16Z"/><path class="cls-3" d="M766.49,459.41l-.36,23.4,15.67,15.67A126.17,126.17,0,0,0,766.49,459.41Z"/><rect class="cls-3" x="549.67" y="492.61" width="65.64" height="65.64" transform="translate(-200.92 565.77) rotate(-45)"/><rect class="cls-3" x="618.43" y="423.84" width="65.64" height="65.64" transform="translate(-132.16 594.26) rotate(-45)"/><rect class="cls-3" x="687.19" y="492.61" width="65.64" height="65.64" transform="translate(-160.64 663.02) rotate(-45)"/><rect class="cls-3" x="618.43" y="561.37" width="65.64" height="65.64" transform="translate(-229.41 634.54) rotate(-45)"/><rect class="cls-3" x="569.81" y="447.98" width="65.64" height="65.64"/><rect class="cls-3" x="667.05" y="447.98" width="65.64" height="65.64"/><rect class="cls-3" x="667.05" y="545.23" width="65.64" height="65.64"/><rect class="cls-3" x="569.81" y="545.23" width="65.64" height="65.64"/><text class="cls-5" transform="translate(565.64 603.2)">PS</text></svg>