<svg xmlns="http://www.w3.org/2000/svg" viewBox="0 0 160 120" fill="none">
  <!-- JSConf 2014 — Stepped Code Terminal -->
  <rect width="160" height="120" fill="#1c1530"/>
  <rect x="68" y="6" width="24" height="5" fill="#c09840"/>
  <rect x="56" y="11" width="48" height="5" fill="#c09840"/>
  <rect x="44" y="16" width="72" height="5" fill="#7060a0"/>
  <rect x="28" y="21" width="104" height="70" fill="#2a1840"/>
  <rect x="30" y="23" width="100" height="66" fill="#120d20"/>
  <rect x="36" y="29" width="88" height="54" fill="#0f0c1a"/>
  <rect x="36" y="29" width="88" height="8" fill="#1c1530"/>
  <circle cx="44" cy="33" r="2.5" fill="#c05848"/>
  <circle cx="53" cy="33" r="2.5" fill="#c09840"/>
  <circle cx="62" cy="33" r="2.5" fill="#5ab4ac"/>
  <rect x="42" y="43" width="44" height="2.5" fill="#5ab4ac" opacity="0.9"/>
  <rect x="42" y="50" width="62" height="2.5" fill="#5ab4ac" opacity="0.65"/>
  <rect x="46" y="57" width="30" height="2.5" fill="#c09840" opacity="0.85"/>
  <rect x="42" y="64" width="52" height="2.5" fill="#5ab4ac" opacity="0.65"/>
  <rect x="46" y="71" width="26" height="2.5" fill="#c05848" opacity="0.75"/>
  <rect x="28" y="91" width="104" height="6" fill="#3a2458"/>
  <rect x="14" y="97" width="132" height="6" fill="#2d1e48"/>
  <rect x="4"  y="103" width="152" height="6" fill="#221638"/>
  <rect x="32" y="25" width="5" height="5" fill="#c09840" opacity="0.5"/>
  <rect x="123" y="25" width="5" height="5" fill="#c09840" opacity="0.5"/>
  <rect x="32" y="82" width="5" height="5" fill="#c09840" opacity="0.5"/>
  <rect x="123" y="82" width="5" height="5" fill="#c09840" opacity="0.5"/>
  <rect x="77" y="1" width="6" height="6" fill="#c05848" opacity="0.85" transform="rotate(45 80 4)"/>
</svg>
